<?xml version="1.0" encoding="UTF-8"?>
<svg xmlns="http://www.w3.org/2000/svg" width="220" height="820" viewBox="0 0 220 820">
  <style>
    .node {
      fill: #ffffff;
      stroke: #000000;
      stroke-width: 1;
    }
    .edge {
      fill: none;
      stroke: #000000;
      stroke-width: 1;
    }
    .node-label {
      font-family: Arial, sans-serif;
      font-size: 12px;
      text-anchor: middle;
      dominant-baseline: middle;
      fill: #000000;
      pointer-events: none;
    }
    .edge-label {
      font-family: Arial, sans-serif;
      font-size: 10px;
      text-anchor: middle;
      dominant-baseline: middle;
      fill: #000000;
      pointer-events: none;
    }
  </style>

  <defs>
    <marker id="arrowhead" markerWidth="10" markerHeight="7" 
            refX="9" refY="3.5" orient="auto">
      <polygon points="0 0, 10 3.5, 0 7" fill="#000000"/>
    </marker>
  </defs>
<g transform="translate(20, 800) scale(1, -1)">
  <path d="M 90.00 90.00 L 90.00 170.00" class="edge" marker-end="url(#arrowhead)"/>
  <path d="M 90.00 220.00 L 90.00 300.00" class="edge" marker-end="url(#arrowhead)"/>
  <text x="90.00" y="-260.00" class="edge-label" transform="scale(1, -1)">data</text>
  <path d="M 90.00 350.00 L 90.00 430.00" class="edge" marker-end="url(#arrowhead)"/>
  <text x="90.00" y="-390.00" class="edge-label" transform="scale(1, -1)">valid</text>
  <path d="M 90.00 480.00 L 90.00 560.00" class="edge" marker-end="url(#arrowhead)"/>
  <path d="M 90.00 610.00 L 90.00 690.00" class="edge" marker-end="url(#arrowhead)"/>
  <text x="90.00" y="-650.00" class="edge-label" transform="scale(1, -1)">complete</text>
  <rect x="40.00" y="560.00" width="100.00" height="50.00" class="node rect"/>
  <text x="90.00" y="-585.00" class="node-label" transform="scale(1, -1)">Display Result</text>
  <rect x="40.00" y="690.00" width="100.00" height="50.00" class="node rect"/>
  <text x="90.00" y="-715.00" class="node-label" transform="scale(1, -1)">End</text>
  <rect x="40.00" y="40.00" width="100.00" height="50.00" class="node rect"/>
  <text x="90.00" y="-65.00" class="node-label" transform="scale(1, -1)">Start</text>
  <rect x="40.00" y="170.00" width="100.00" height="50.00" class="node rect"/>
  <text x="90.00" y="-195.00" class="node-label" transform="scale(1, -1)">Get User Input</text>
  <rect x="40.00" y="300.00" width="100.00" height="50.00" class="node rect"/>
  <text x="90.00" y="-325.00" class="node-label" transform="scale(1, -1)">Validate Input</text>
  <rect x="40.00" y="430.00" width="100.00" height="50.00" class="node rect"/>
  <text x="90.00" y="-455.00" class="node-label" transform="scale(1, -1)">Process Data</text>
</g>
</svg>
