<?xml version="1.0" encoding="UTF-8"?>
<svg xmlns="http://www.w3.org/2000/svg" width="1120" height="820" viewBox="0 0 1120 820">
  <style>
    .node {
      fill: #ffffff;
      stroke: #000000;
      stroke-width: 1;
      fill: #f0f0f0;
    }
    .edge {
      fill: none;
      stroke: #000000;
      stroke-width: 1;
      stroke: #2c3e50;
      stroke-width: 2;
    }
    .node-label {
      font-family: Arial, sans-serif;
      font-size: 12px;
      text-anchor: middle;
      dominant-baseline: middle;
      fill: #000000;
      pointer-events: none;
    }
    .edge-label {
      font-family: Arial, sans-serif;
      font-size: 10px;
      text-anchor: middle;
      dominant-baseline: middle;
      fill: #000000;
      pointer-events: none;
    }
  </style>

  <defs>
    <marker id="arrowhead" markerWidth="10" markerHeight="7" 
            refX="9" refY="3.5" orient="auto">
      <polygon points="0 0, 10 3.5, 0 7" fill="#000000"/>
    </marker>
  </defs>
<g transform="translate(20, 800) scale(1, -1)">
  <path d="M 540.00 690.00 L 540.00 610.00" class="edge" marker-end="url(#arrowhead)"/>
  <path d="M 540.00 560.00 L 360.00 480.00" class="edge" marker-end="url(#arrowhead)"/>
  <text x="450.00" y="-520.00" class="edge-label" transform="scale(1, -1)">technical</text>
  <path d="M 360.00 430.00 L 360.00 350.00" class="edge" marker-end="url(#arrowhead)"/>
  <path d="M 360.00 300.00 L 90.00 220.00" class="edge" marker-end="url(#arrowhead)"/>
  <text x="225.00" y="-260.00" class="edge-label" transform="scale(1, -1)">high</text>
  <path d="M 360.00 300.00 L 270.00 220.00" class="edge" marker-end="url(#arrowhead)"/>
  <text x="315.00" y="-260.00" class="edge-label" transform="scale(1, -1)">low</text>
  <path d="M 90.00 170.00 L 450.00 90.00" class="edge" marker-end="url(#arrowhead)"/>
  <path d="M 270.00 170.00 L 270.00 90.00" class="edge" marker-end="url(#arrowhead)"/>
  <path d="M 540.00 560.00 L 540.00 480.00" class="edge" marker-end="url(#arrowhead)"/>
  <text x="540.00" y="-520.00" class="edge-label" transform="scale(1, -1)">billing</text>
  <path d="M 540.00 430.00 L 540.00 350.00" class="edge" marker-end="url(#arrowhead)"/>
  <path d="M 540.00 300.00 L 450.00 220.00" class="edge" marker-end="url(#arrowhead)"/>
  <text x="495.00" y="-260.00" class="edge-label" transform="scale(1, -1)">yes</text>
  <path d="M 540.00 300.00 L 630.00 220.00" class="edge" marker-end="url(#arrowhead)"/>
  <text x="585.00" y="-260.00" class="edge-label" transform="scale(1, -1)">no</text>
  <path d="M 450.00 170.00 L 450.00 90.00" class="edge" marker-end="url(#arrowhead)"/>
  <path d="M 630.00 170.00 L 630.00 90.00" class="edge" marker-end="url(#arrowhead)"/>
  <path d="M 540.00 560.00 L 720.00 480.00" class="edge" marker-end="url(#arrowhead)"/>
  <text x="630.00" y="-520.00" class="edge-label" transform="scale(1, -1)">general</text>
  <path d="M 720.00 430.00 L 720.00 350.00" class="edge" marker-end="url(#arrowhead)"/>
  <path d="M 720.00 300.00 L 810.00 220.00" class="edge" marker-end="url(#arrowhead)"/>
  <text x="765.00" y="-260.00" class="edge-label" transform="scale(1, -1)">yes</text>
  <path d="M 720.00 300.00 L 990.00 220.00" class="edge" marker-end="url(#arrowhead)"/>
  <text x="855.00" y="-260.00" class="edge-label" transform="scale(1, -1)">no</text>
  <path d="M 810.00 170.00 L 630.00 90.00" class="edge" marker-end="url(#arrowhead)"/>
  <path d="M 990.00 170.00 L 810.00 90.00" class="edge" marker-end="url(#arrowhead)"/>
  <rect x="940.00" y="170.00" width="100.00" height="50.00" class="node rect"/>
  <text x="990.00" y="-195.00" class="node-label" transform="scale(1, -1)">General Support</text>
  <polygon points="360.00,300.00 410.00,325.00 360.00,350.00 310.00,325.00" class="node diamond"/>
  <text x="360.00" y="-325.00" class="node-label" transform="scale(1, -1)">Severity?</text>
  <rect x="40.00" y="170.00" width="100.00" height="50.00" class="node rect"/>
  <text x="90.00" y="-195.00" class="node-label" transform="scale(1, -1)">Critical Issue</text>
  <rect x="220.00" y="170.00" width="100.00" height="50.00" class="node rect"/>
  <text x="270.00" y="-195.00" class="node-label" transform="scale(1, -1)">Normal Issue</text>
  <rect x="580.00" y="170.00" width="100.00" height="50.00" class="node rect"/>
  <text x="630.00" y="-195.00" class="node-label" transform="scale(1, -1)">Standard Case</text>
  <ellipse cx="810.00" cy="65.00" rx="50.00" ry="25.00" class="node ellipse"/>
  <text x="810.00" y="-65.00" class="node-label" transform="scale(1, -1)">Support Team</text>
  <polygon points="540.00,560.00 590.00,585.00 540.00,610.00 490.00,585.00" class="node diamond"/>
  <text x="540.00" y="-585.00" class="node-label" transform="scale(1, -1)">Request Type?</text>
  <rect x="670.00" y="430.00" width="100.00" height="50.00" class="node rect"/>
  <text x="720.00" y="-455.00" class="node-label" transform="scale(1, -1)">General Inquiry</text>
  <polygon points="540.00,300.00 590.00,325.00 540.00,350.00 490.00,325.00" class="node diamond"/>
  <text x="540.00" y="-325.00" class="node-label" transform="scale(1, -1)">Amount &gt; $100?</text>
  <ellipse cx="540.00" cy="715.00" rx="50.00" ry="25.00" class="node ellipse"/>
  <text x="540.00" y="-715.00" class="node-label" transform="scale(1, -1)">Customer Service Request</text>
  <rect x="490.00" y="430.00" width="100.00" height="50.00" class="node rect"/>
  <text x="540.00" y="-455.00" class="node-label" transform="scale(1, -1)">Billing Issue</text>
  <polygon points="720.00,300.00 770.00,325.00 720.00,350.00 670.00,325.00" class="node diamond"/>
  <text x="720.00" y="-325.00" class="node-label" transform="scale(1, -1)">Account Related?</text>
  <rect x="400.00" y="170.00" width="100.00" height="50.00" class="node rect"/>
  <text x="450.00" y="-195.00" class="node-label" transform="scale(1, -1)">High Value Case</text>
  <ellipse cx="630.00" cy="65.00" rx="50.00" ry="25.00" class="node ellipse"/>
  <text x="630.00" y="-65.00" class="node-label" transform="scale(1, -1)">Billing Team</text>
  <rect x="310.00" y="430.00" width="100.00" height="50.00" class="node rect"/>
  <text x="360.00" y="-455.00" class="node-label" transform="scale(1, -1)">Technical Issue</text>
  <rect x="760.00" y="170.00" width="100.00" height="50.00" class="node rect"/>
  <text x="810.00" y="-195.00" class="node-label" transform="scale(1, -1)">Account Support</text>
  <ellipse cx="270.00" cy="65.00" rx="50.00" ry="25.00" class="node ellipse"/>
  <text x="270.00" y="-65.00" class="node-label" transform="scale(1, -1)">Tech Support Team</text>
  <ellipse cx="450.00" cy="65.00" rx="50.00" ry="25.00" class="node ellipse"/>
  <text x="450.00" y="-65.00" class="node-label" transform="scale(1, -1)">Escalate to L2</text>
</g>
</svg>
