<?xml version="1.0" encoding="UTF-8"?>
<svg xmlns="http://www.w3.org/2000/svg" width="760" height="300" viewBox="0 0 760 300">
  <style>
    .node {
      fill: #ffffff;
      stroke: #000000;
      stroke-width: 1;
    }
    .edge {
      fill: none;
      stroke: #000000;
      stroke-width: 1;
    }
    .node-label {
      font-family: Arial, sans-serif;
      font-size: 12px;
      text-anchor: middle;
      dominant-baseline: middle;
      fill: #000000;
      pointer-events: none;
    }
    .edge-label {
      font-family: Arial, sans-serif;
      font-size: 10px;
      text-anchor: middle;
      dominant-baseline: middle;
      fill: #000000;
      pointer-events: none;
    }
  </style>

  <defs>
    <marker id="arrowhead" markerWidth="10" markerHeight="7" 
            refX="9" refY="3.5" orient="auto">
      <polygon points="0 0, 10 3.5, 0 7" fill="#000000"/>
    </marker>
  </defs>
<g transform="translate(20, 280) scale(1, -1)">
  <path d="M 580.00 130.00 L 500.00 65.00" class="edge" marker-end="url(#arrowhead)"/>
  <path d="M 580.00 130.00 L 500.00 195.00" class="edge" marker-end="url(#arrowhead)"/>
  <path d="M 400.00 65.00 L 320.00 130.00" class="edge" marker-end="url(#arrowhead)"/>
  <text x="360.00" y="-97.50" class="edge-label" transform="scale(1, -1)">path A</text>
  <path d="M 400.00 195.00 L 320.00 130.00" class="edge" marker-end="url(#arrowhead)"/>
  <text x="360.00" y="-162.50" class="edge-label" transform="scale(1, -1)">path B</text>
  <path d="M 220.00 130.00 L 140.00 130.00" class="edge" marker-end="url(#arrowhead)"/>
  <rect x="400.00" y="40.00" width="100.00" height="50.00" class="node rect"/>
  <text x="450.00" y="-65.00" class="node-label" transform="scale(1, -1)">Branch A</text>
  <rect x="400.00" y="170.00" width="100.00" height="50.00" class="node rect"/>
  <text x="450.00" y="-195.00" class="node-label" transform="scale(1, -1)">Branch B</text>
  <polygon points="270.00,105.00 320.00,130.00 270.00,155.00 220.00,130.00" class="node diamond"/>
  <text x="270.00" y="-130.00" class="node-label" transform="scale(1, -1)">Combine</text>
  <ellipse cx="90.00" cy="130.00" rx="50.00" ry="25.00" class="node ellipse"/>
  <text x="90.00" y="-130.00" class="node-label" transform="scale(1, -1)">End Result</text>
  <ellipse cx="630.00" cy="130.00" rx="50.00" ry="25.00" class="node ellipse"/>
  <text x="630.00" y="-130.00" class="node-label" transform="scale(1, -1)">Start</text>
</g>
</svg>
