<?xml version="1.0" encoding="UTF-8"?>
<svg xmlns="http://www.w3.org/2000/svg" width="220" height="820" viewBox="0 0 220 820">
  <style>
    .node {
      fill: #ffffff;
      stroke: #000000;
      stroke-width: 1;
    }
    .edge {
      fill: none;
      stroke: #000000;
      stroke-width: 1;
    }
    .node-label {
      font-family: Arial, sans-serif;
      font-size: 12px;
      text-anchor: middle;
      dominant-baseline: middle;
      fill: #000000;
      pointer-events: none;
    }
    .edge-label {
      font-family: Arial, sans-serif;
      font-size: 10px;
      text-anchor: middle;
      dominant-baseline: middle;
      fill: #000000;
      pointer-events: none;
    }
  </style>

  <defs>
    <marker id="arrowhead" markerWidth="10" markerHeight="7" 
            refX="9" refY="3.5" orient="auto">
      <polygon points="0 0, 10 3.5, 0 7" fill="#000000"/>
    </marker>
  </defs>
<g transform="translate(20, 800) scale(1, -1)">
  <path d="M 90.00 690.00 L 90.00 610.00" class="edge" marker-end="url(#arrowhead)"/>
  <text x="90.00" y="-650.00" class="edge-label" transform="scale(1, -1)">requirements</text>
  <path d="M 90.00 560.00 L 90.00 480.00" class="edge" marker-end="url(#arrowhead)"/>
  <text x="90.00" y="-520.00" class="edge-label" transform="scale(1, -1)">specs</text>
  <path d="M 90.00 430.00 L 90.00 350.00" class="edge" marker-end="url(#arrowhead)"/>
  <text x="90.00" y="-390.00" class="edge-label" transform="scale(1, -1)">build</text>
  <path d="M 90.00 300.00 L 90.00 220.00" class="edge" marker-end="url(#arrowhead)"/>
  <text x="90.00" y="-260.00" class="edge-label" transform="scale(1, -1)">pass</text>
  <path d="M 90.00 170.00 L 90.00 90.00" class="edge" marker-end="url(#arrowhead)"/>
  <text x="90.00" y="-130.00" class="edge-label" transform="scale(1, -1)">live</text>
  <rect x="40.00" y="560.00" width="100.00" height="50.00" class="node rect"/>
  <text x="90.00" y="-585.00" class="node-label" transform="scale(1, -1)">Design System</text>
  <rect x="40.00" y="430.00" width="100.00" height="50.00" class="node rect"/>
  <text x="90.00" y="-455.00" class="node-label" transform="scale(1, -1)">Implement</text>
  <polygon points="90.00,300.00 140.00,325.00 90.00,350.00 40.00,325.00" class="node diamond"/>
  <text x="90.00" y="-325.00" class="node-label" transform="scale(1, -1)">Test &amp; QA</text>
  <rect x="40.00" y="170.00" width="100.00" height="50.00" class="node rect"/>
  <text x="90.00" y="-195.00" class="node-label" transform="scale(1, -1)">Deploy</text>
  <ellipse cx="90.00" cy="65.00" rx="50.00" ry="25.00" class="node ellipse"/>
  <text x="90.00" y="-65.00" class="node-label" transform="scale(1, -1)">Monitor</text>
  <ellipse cx="90.00" cy="715.00" rx="50.00" ry="25.00" class="node ellipse"/>
  <text x="90.00" y="-715.00" class="node-label" transform="scale(1, -1)">Plan Project</text>
</g>
</svg>
